<svg width="80" height="88" viewBox="0 0 80 88" fill="none" xmlns="http://www.w3.org/2000/svg">
<g filter="url(#filter0_b_12_6017)">
<path d="M0 47.8954C0 25.8618 17.9664 8 40 8C62.0336 8 80 25.8618 80 47.8954C80 69.929 62.0336 87.7908 40 87.7908C17.9664 87.7908 0 69.929 0 47.8954Z" fill="url(#paint0_radial_12_6017)"/>
<path d="M0.5 47.8954C0.5 26.1396 18.2408 8.5 40 8.5C61.7592 8.5 79.5 26.1396 79.5 47.8954C79.5 69.6512 61.7592 87.2908 40 87.2908C18.2408 87.2908 0.5 69.6512 0.5 47.8954Z" stroke="url(#paint1_radial_12_6017)"/>
<path d="M0.5 47.8954C0.5 26.1396 18.2408 8.5 40 8.5C61.7592 8.5 79.5 26.1396 79.5 47.8954C79.5 69.6512 61.7592 87.2908 40 87.2908C18.2408 87.2908 0.5 69.6512 0.5 47.8954Z" stroke="url(#paint2_radial_12_6017)"/>
<path d="M0.5 47.8954C0.5 26.1396 18.2408 8.5 40 8.5C61.7592 8.5 79.5 26.1396 79.5 47.8954C79.5 69.6512 61.7592 87.2908 40 87.2908C18.2408 87.2908 0.5 69.6512 0.5 47.8954Z" stroke="url(#paint3_radial_12_6017)"/>
</g>
<g filter="url(#filter1_f_12_6017)">
<ellipse cx="39.744" cy="29.4821" rx="25.3846" ry="16.3673" fill="url(#paint4_radial_12_6017)" fill-opacity="0.2"/>
</g>
<g clip-path="url(#clip0_12_6017)">
<path d="M46.2382 41.213L44.118 42.4367C43.55 41.949 42.8976 41.5692 42.193 41.3161V38.8755H38.068V41.3175C37.3634 41.5705 36.711 41.9503 36.143 42.4381L34.0117 41.213L31.9492 44.788L34.0516 46.0021C33.8994 46.7442 33.8994 47.5095 34.0516 48.2516L31.9492 49.463L34.0117 53.038L36.132 51.8142C36.7 52.3019 37.3524 52.6817 38.057 52.9348V55.3755H42.182V52.9335C42.8866 52.6804 43.539 52.3006 44.107 51.8128L46.2272 53.0366L48.2897 49.4616L46.1874 48.2475C46.3395 47.5053 46.3395 46.7401 46.1874 45.998L48.3007 44.788L46.2382 41.213ZM40.125 49.188C39.7171 49.188 39.3183 49.067 38.9791 48.8404C38.6399 48.6137 38.3756 48.2916 38.2195 47.9147C38.0634 47.5379 38.0225 47.1232 38.1021 46.7231C38.1817 46.323 38.3781 45.9555 38.6666 45.667C38.955 45.3786 39.3225 45.1822 39.7226 45.1026C40.1227 45.023 40.5374 45.0638 40.9143 45.22C41.2911 45.3761 41.6133 45.6404 41.8399 45.9796C42.0665 46.3188 42.1875 46.7175 42.1875 47.1255C42.1875 47.6725 41.9702 48.1971 41.5834 48.5839C41.1966 48.9707 40.672 49.188 40.125 49.188ZM57.8226 49.0395C57.516 48.352 57.2094 47.6411 56.9027 46.9343C55.7299 43.8224 54.1978 40.858 52.3377 38.1013C50.6389 35.8238 48.335 34.0687 45.6881 33.0357C43.0412 32.0027 40.1575 31.7332 37.365 32.258C34.5725 32.7827 31.9834 34.0806 29.892 36.004C27.8006 37.9274 26.291 40.3991 25.5349 43.138C24.8997 45.5016 24.8509 47.9845 25.3927 50.3712C25.9344 52.758 27.0504 54.9765 28.6437 56.8343C28.9528 57.2017 29.1231 57.666 29.125 58.1461V65.0005H48.375V60.8755H49.6029C50.7642 60.8714 51.8852 60.4491 52.7606 59.686C53.6361 58.923 54.2074 57.8701 54.37 56.7202L54.8375 53.313H58V49.4396L57.8226 49.0395ZM51.2432 49.188L50.2807 56.1565C50.258 56.3221 50.1756 56.4739 50.0491 56.5832C49.9225 56.6925 49.7605 56.752 49.5932 56.7505H44.25V60.8755H33.25V58.1461C33.2472 56.6997 32.7378 55.3 31.8104 54.1902C30.6449 52.8384 29.8268 51.2226 29.4272 49.483C29.0275 47.7435 29.0583 45.9327 29.5169 44.2077C30.0748 42.21 31.1833 40.4094 32.7156 39.0115C34.2479 37.6135 36.1424 36.6746 38.1828 36.3018C40.2232 35.929 42.3274 36.1374 44.255 36.9032C46.1826 37.669 47.8561 38.9613 49.0845 40.6327C50.7086 43.1291 52.061 45.792 53.1187 48.5761L53.3841 49.1866L51.2432 49.188Z" fill="url(#paint5_linear_12_6017)"/>
</g>
<defs>
<filter id="filter0_b_12_6017" x="-5" y="3" width="90" height="89.7908" filterUnits="userSpaceOnUse" color-interpolation-filters="sRGB">
<feFlood flood-opacity="0" result="BackgroundImageFix"/>
<feGaussianBlur in="BackgroundImageFix" stdDeviation="2.5"/>
<feComposite in2="SourceAlpha" operator="in" result="effect1_backgroundBlur_12_6017"/>
<feBlend mode="normal" in="SourceGraphic" in2="effect1_backgroundBlur_12_6017" result="shape"/>
</filter>
<filter id="filter1_f_12_6017" x="1.40484" y="0.160212" width="76.6786" height="58.6437" filterUnits="userSpaceOnUse" color-interpolation-filters="sRGB">
<feFlood flood-opacity="0" result="BackgroundImageFix"/>
<feBlend mode="normal" in="SourceGraphic" in2="BackgroundImageFix" result="shape"/>
<feGaussianBlur stdDeviation="6.47727" result="effect1_foregroundBlur_12_6017"/>
</filter>
<radialGradient id="paint0_radial_12_6017" cx="0" cy="0" r="1" gradientUnits="userSpaceOnUse" gradientTransform="translate(6.69204 8) rotate(47.9449) scale(119.431 86.7751)">
<stop stop-color="white" stop-opacity="0.36"/>
<stop offset="1" stop-color="white" stop-opacity="0"/>
</radialGradient>
<radialGradient id="paint1_radial_12_6017" cx="0" cy="0" r="1" gradientUnits="userSpaceOnUse" gradientTransform="translate(-42.5965 16.1628) rotate(35.0407) scale(92.1512 54.3882)">
<stop stop-color="white"/>
<stop offset="1" stop-color="white" stop-opacity="0.06"/>
</radialGradient>
<radialGradient id="paint2_radial_12_6017" cx="0" cy="0" r="1" gradientUnits="userSpaceOnUse" gradientTransform="translate(103.421 61.4008) rotate(161.385) scale(66.8428 45.1784)">
<stop stop-color="#38B6FF"/>
<stop offset="1" stop-color="#1D294D"/>
</radialGradient>
<radialGradient id="paint3_radial_12_6017" cx="0" cy="0" r="1" gradientUnits="userSpaceOnUse" gradientTransform="translate(40.871 -10.2359) rotate(47.2149) scale(44.643 32.0879)">
<stop stop-color="white"/>
<stop offset="1" stop-color="white" stop-opacity="0"/>
</radialGradient>
<radialGradient id="paint4_radial_12_6017" cx="0" cy="0" r="1" gradientUnits="userSpaceOnUse" gradientTransform="translate(39.744 13.1147) rotate(90) scale(24.2566 37.625)">
<stop stop-color="white"/>
<stop offset="1" stop-color="white" stop-opacity="0"/>
</radialGradient>
<linearGradient id="paint5_linear_12_6017" x1="41.5098" y1="31.9968" x2="41.5098" y2="65.0005" gradientUnits="userSpaceOnUse">
<stop stop-color="#38B6FF"/>
<stop offset="1" stop-color="#ABBFD7"/>
</linearGradient>
<clipPath id="clip0_12_6017">
<rect width="33" height="33" fill="white" transform="translate(25 32)"/>
</clipPath>
</defs>
</svg>
