<svg width="80" height="88" viewBox="0 0 80 88" fill="none" xmlns="http://www.w3.org/2000/svg">
<g filter="url(#filter0_b_16_1098)">
<path d="M0 47.8954C0 25.8618 17.9664 8 40 8C62.0336 8 80 25.8618 80 47.8954C80 69.929 62.0336 87.7908 40 87.7908C17.9664 87.7908 0 69.929 0 47.8954Z" fill="url(#paint0_radial_16_1098)"/>
<path d="M0.5 47.8954C0.5 26.1396 18.2408 8.5 40 8.5C61.7592 8.5 79.5 26.1396 79.5 47.8954C79.5 69.6512 61.7592 87.2908 40 87.2908C18.2408 87.2908 0.5 69.6512 0.5 47.8954Z" stroke="url(#paint1_radial_16_1098)"/>
<path d="M0.5 47.8954C0.5 26.1396 18.2408 8.5 40 8.5C61.7592 8.5 79.5 26.1396 79.5 47.8954C79.5 69.6512 61.7592 87.2908 40 87.2908C18.2408 87.2908 0.5 69.6512 0.5 47.8954Z" stroke="url(#paint2_radial_16_1098)"/>
<path d="M0.5 47.8954C0.5 26.1396 18.2408 8.5 40 8.5C61.7592 8.5 79.5 26.1396 79.5 47.8954C79.5 69.6512 61.7592 87.2908 40 87.2908C18.2408 87.2908 0.5 69.6512 0.5 47.8954Z" stroke="url(#paint3_radial_16_1098)"/>
</g>
<g filter="url(#filter1_f_16_1098)">
<ellipse cx="39.744" cy="29.4821" rx="25.3846" ry="16.3673" fill="url(#paint4_radial_16_1098)" fill-opacity="0.2"/>
</g>
<path d="M48.8397 40.3335C48.8397 40.3335 48.4219 42.3668 42.1553 50.5002C36.0975 58.2268 44.8708 63.9202 45.9153 64.7335H46.1242C47.3775 63.7168 63.253 53.9568 48.8397 40.3335Z" stroke="#FB923C" stroke-width="1.5" stroke-miterlimit="10" stroke-linecap="round" stroke-linejoin="round"/>
<path d="M43.8264 35.86C43.8264 31.1833 41.9464 26.9133 40.0664 24.4733C39.4398 23.8633 38.3953 24.0667 38.1864 24.88C37.3509 27.93 34.8442 34.4367 28.7864 42.1633C21.0575 51.9233 28.1598 62.4967 35.4709 64.53C39.4398 65.5467 34.4264 62.4967 33.7998 56.1933C33.1731 48.2633 43.8264 42.3667 43.8264 35.86Z" stroke="#FB923C" stroke-width="1.5" stroke-miterlimit="10" stroke-linecap="round" stroke-linejoin="round"/>
<defs>
<filter id="filter0_b_16_1098" x="-5" y="3" width="90" height="89.791" filterUnits="userSpaceOnUse" color-interpolation-filters="sRGB">
<feFlood flood-opacity="0" result="BackgroundImageFix"/>
<feGaussianBlur in="BackgroundImageFix" stdDeviation="2.5"/>
<feComposite in2="SourceAlpha" operator="in" result="effect1_backgroundBlur_16_1098"/>
<feBlend mode="normal" in="SourceGraphic" in2="effect1_backgroundBlur_16_1098" result="shape"/>
</filter>
<filter id="filter1_f_16_1098" x="1.40484" y="0.160212" width="76.6786" height="58.6439" filterUnits="userSpaceOnUse" color-interpolation-filters="sRGB">
<feFlood flood-opacity="0" result="BackgroundImageFix"/>
<feBlend mode="normal" in="SourceGraphic" in2="BackgroundImageFix" result="shape"/>
<feGaussianBlur stdDeviation="6.47727" result="effect1_foregroundBlur_16_1098"/>
</filter>
<radialGradient id="paint0_radial_16_1098" cx="0" cy="0" r="1" gradientUnits="userSpaceOnUse" gradientTransform="translate(6.69204 8) rotate(47.9449) scale(119.431 86.7751)">
<stop stop-color="white" stop-opacity="0.36"/>
<stop offset="1" stop-color="white" stop-opacity="0"/>
</radialGradient>
<radialGradient id="paint1_radial_16_1098" cx="0" cy="0" r="1" gradientUnits="userSpaceOnUse" gradientTransform="translate(-42.5965 16.1628) rotate(35.0407) scale(92.1512 54.3882)">
<stop stop-color="white"/>
<stop offset="1" stop-color="white" stop-opacity="0.06"/>
</radialGradient>
<radialGradient id="paint2_radial_16_1098" cx="0" cy="0" r="1" gradientUnits="userSpaceOnUse" gradientTransform="translate(103.421 61.4008) rotate(161.385) scale(66.8428 45.1784)">
<stop stop-color="#38B6FF"/>
<stop offset="1" stop-color="#1D294D"/>
</radialGradient>
<radialGradient id="paint3_radial_16_1098" cx="0" cy="0" r="1" gradientUnits="userSpaceOnUse" gradientTransform="translate(40.871 -10.2359) rotate(47.2149) scale(44.643 32.0879)">
<stop stop-color="white"/>
<stop offset="1" stop-color="white" stop-opacity="0"/>
</radialGradient>
<radialGradient id="paint4_radial_16_1098" cx="0" cy="0" r="1" gradientUnits="userSpaceOnUse" gradientTransform="translate(39.744 13.1147) rotate(90) scale(24.2566 37.625)">
<stop stop-color="white"/>
<stop offset="1" stop-color="white" stop-opacity="0"/>
</radialGradient>
</defs>
</svg>
