<svg width="80" height="88" viewBox="0 0 80 88" fill="none" xmlns="http://www.w3.org/2000/svg">
<g filter="url(#filter0_b_10_5820)">
<path d="M0 47.8954C0 25.8618 17.9664 8 40 8C62.0336 8 80 25.8618 80 47.8954C80 69.929 62.0336 87.7908 40 87.7908C17.9664 87.7908 0 69.929 0 47.8954Z" fill="url(#paint0_radial_10_5820)"/>
<path d="M0.5 47.8954C0.5 26.1396 18.2408 8.5 40 8.5C61.7592 8.5 79.5 26.1396 79.5 47.8954C79.5 69.6512 61.7592 87.2908 40 87.2908C18.2408 87.2908 0.5 69.6512 0.5 47.8954Z" stroke="url(#paint1_radial_10_5820)"/>
<path d="M0.5 47.8954C0.5 26.1396 18.2408 8.5 40 8.5C61.7592 8.5 79.5 26.1396 79.5 47.8954C79.5 69.6512 61.7592 87.2908 40 87.2908C18.2408 87.2908 0.5 69.6512 0.5 47.8954Z" stroke="url(#paint2_radial_10_5820)"/>
<path d="M0.5 47.8954C0.5 26.1396 18.2408 8.5 40 8.5C61.7592 8.5 79.5 26.1396 79.5 47.8954C79.5 69.6512 61.7592 87.2908 40 87.2908C18.2408 87.2908 0.5 69.6512 0.5 47.8954Z" stroke="url(#paint3_radial_10_5820)"/>
</g>
<g filter="url(#filter1_f_10_5820)">
<ellipse cx="39.7435" cy="29.4821" rx="25.3846" ry="16.3673" fill="url(#paint4_radial_10_5820)" fill-opacity="0.2"/>
</g>
<path d="M39.5002 33.3748C36.007 33.3733 32.6043 34.4856 29.7864 36.55C26.9686 38.6145 24.8823 41.5237 23.8307 44.8549C22.7791 48.186 22.817 51.7657 23.9389 55.0739C25.0608 58.3821 27.2082 61.2464 30.0691 63.2508L30.6012 63.6248H48.3992L48.9314 63.2508C51.7923 61.2464 53.9397 58.3821 55.0616 55.0739C56.1834 51.7657 56.2213 48.186 55.1698 44.8549C54.1182 41.5237 52.0319 38.6145 49.214 36.55C46.3962 34.4856 42.9935 33.3733 39.5002 33.3748ZM47.0627 59.4998H31.9377C29.9153 57.9243 28.4353 55.7566 27.7045 53.2993C26.9738 50.842 27.0287 48.2178 27.8616 45.7933C28.6945 43.3687 30.2638 41.2647 32.3504 39.7753C34.4369 38.2858 36.9366 37.4851 39.5002 37.4851C42.0639 37.4851 44.5635 38.2858 46.6501 39.7753C48.7367 41.2647 50.306 43.3687 51.1389 45.7933C51.9718 48.2178 52.0267 50.842 51.2959 53.2993C50.5652 55.7566 49.0852 57.9243 47.0627 59.4998ZM42.2351 49.9834C42.217 50.5122 42.0467 51.0246 41.7447 51.4591C41.4426 51.8936 41.0216 52.2317 40.5322 52.4329C40.0427 52.634 39.5057 52.6897 38.9854 52.5932C38.4651 52.4968 37.9837 52.2522 37.5989 51.889C37.2141 51.5257 36.9423 51.0591 36.8161 50.5453C36.6899 50.0314 36.7146 49.492 36.8873 48.9918C37.06 48.4916 37.3734 48.0519 37.7898 47.7253C38.2062 47.3988 38.7079 47.1993 39.2349 47.1509L44.1849 42.194L47.1012 45.1104L42.2351 49.9834ZM36.346 54.3738L33.9741 57.7508C32.1734 56.5025 30.8536 54.6761 30.2336 52.5746C29.6136 50.473 29.7307 48.2227 30.5654 46.1969C31.4001 44.1711 32.9024 42.4915 34.8229 41.4368C36.7434 40.3821 38.9667 40.0157 41.1241 40.3983L35.3876 46.2599C34.8732 46.8361 34.4871 47.515 34.2549 48.2517C34.0227 48.9884 33.9496 49.766 34.0407 50.533C34.1317 51.3001 34.3846 52.039 34.7828 52.7009C35.1809 53.3628 35.7152 53.9325 36.3501 54.3724L36.346 54.3738ZM49.1252 49.8748C49.123 51.4199 48.7495 52.9419 48.0362 54.3126C47.3229 55.6832 46.2906 56.8624 45.0264 57.7508L42.6545 54.3738C43.089 54.0685 48.9575 48.1258 48.9575 48.1258C49.0672 48.7023 49.1233 49.2878 49.1252 49.8748Z" fill="url(#paint5_linear_10_5820)"/>
<defs>
<filter id="filter0_b_10_5820" x="-5" y="3" width="90" height="89.7908" filterUnits="userSpaceOnUse" color-interpolation-filters="sRGB">
<feFlood flood-opacity="0" result="BackgroundImageFix"/>
<feGaussianBlur in="BackgroundImageFix" stdDeviation="2.5"/>
<feComposite in2="SourceAlpha" operator="in" result="effect1_backgroundBlur_10_5820"/>
<feBlend mode="normal" in="SourceGraphic" in2="effect1_backgroundBlur_10_5820" result="shape"/>
</filter>
<filter id="filter1_f_10_5820" x="1.40435" y="0.160212" width="76.6781" height="58.6437" filterUnits="userSpaceOnUse" color-interpolation-filters="sRGB">
<feFlood flood-opacity="0" result="BackgroundImageFix"/>
<feBlend mode="normal" in="SourceGraphic" in2="BackgroundImageFix" result="shape"/>
<feGaussianBlur stdDeviation="6.47727" result="effect1_foregroundBlur_10_5820"/>
</filter>
<radialGradient id="paint0_radial_10_5820" cx="0" cy="0" r="1" gradientUnits="userSpaceOnUse" gradientTransform="translate(6.69204 8) rotate(47.9449) scale(119.431 86.7751)">
<stop stop-color="white" stop-opacity="0.36"/>
<stop offset="1" stop-color="white" stop-opacity="0"/>
</radialGradient>
<radialGradient id="paint1_radial_10_5820" cx="0" cy="0" r="1" gradientUnits="userSpaceOnUse" gradientTransform="translate(-42.5965 16.1628) rotate(35.0407) scale(92.1512 54.3882)">
<stop stop-color="white"/>
<stop offset="1" stop-color="white" stop-opacity="0.06"/>
</radialGradient>
<radialGradient id="paint2_radial_10_5820" cx="0" cy="0" r="1" gradientUnits="userSpaceOnUse" gradientTransform="translate(103.421 61.4008) rotate(161.385) scale(66.8428 45.1784)">
<stop stop-color="#38B6FF"/>
<stop offset="1" stop-color="#1D294D"/>
</radialGradient>
<radialGradient id="paint3_radial_10_5820" cx="0" cy="0" r="1" gradientUnits="userSpaceOnUse" gradientTransform="translate(40.871 -10.2359) rotate(47.2149) scale(44.643 32.0879)">
<stop stop-color="white"/>
<stop offset="1" stop-color="white" stop-opacity="0"/>
</radialGradient>
<radialGradient id="paint4_radial_10_5820" cx="0" cy="0" r="1" gradientUnits="userSpaceOnUse" gradientTransform="translate(39.7435 13.1147) rotate(90) scale(24.2566 37.625)">
<stop stop-color="white"/>
<stop offset="1" stop-color="white" stop-opacity="0"/>
</radialGradient>
<linearGradient id="paint5_linear_10_5820" x1="39.5002" y1="33.3748" x2="39.5002" y2="63.6248" gradientUnits="userSpaceOnUse">
<stop stop-color="#3695D9"/>
<stop offset="1" stop-color="#C4B4B8"/>
</linearGradient>
</defs>
</svg>
