<svg width="80" height="88" viewBox="0 0 80 88" fill="none" xmlns="http://www.w3.org/2000/svg">
<g filter="url(#filter0_b_12_6030)">
<path d="M0 47.8954C0 25.8618 17.9664 8 40 8C62.0336 8 80 25.8618 80 47.8954C80 69.929 62.0336 87.7908 40 87.7908C17.9664 87.7908 0 69.929 0 47.8954Z" fill="url(#paint0_radial_12_6030)"/>
<path d="M0.5 47.8954C0.5 26.1396 18.2408 8.5 40 8.5C61.7592 8.5 79.5 26.1396 79.5 47.8954C79.5 69.6512 61.7592 87.2908 40 87.2908C18.2408 87.2908 0.5 69.6512 0.5 47.8954Z" stroke="url(#paint1_radial_12_6030)"/>
<path d="M0.5 47.8954C0.5 26.1396 18.2408 8.5 40 8.5C61.7592 8.5 79.5 26.1396 79.5 47.8954C79.5 69.6512 61.7592 87.2908 40 87.2908C18.2408 87.2908 0.5 69.6512 0.5 47.8954Z" stroke="url(#paint2_radial_12_6030)"/>
<path d="M0.5 47.8954C0.5 26.1396 18.2408 8.5 40 8.5C61.7592 8.5 79.5 26.1396 79.5 47.8954C79.5 69.6512 61.7592 87.2908 40 87.2908C18.2408 87.2908 0.5 69.6512 0.5 47.8954Z" stroke="url(#paint3_radial_12_6030)"/>
</g>
<g filter="url(#filter1_f_12_6030)">
<ellipse cx="39.744" cy="29.4821" rx="25.3846" ry="16.3673" fill="url(#paint4_radial_12_6030)" fill-opacity="0.2"/>
</g>
<path d="M39.4998 33.3748C36.0065 33.3733 32.6038 34.4856 29.7859 36.55C26.9681 38.6145 24.8818 41.5237 23.8302 44.8549C22.7787 48.186 22.8165 51.7657 23.9384 55.0739C25.0603 58.3821 27.2077 61.2464 30.0686 63.2508L30.6008 63.6248H48.3988L48.9309 63.2508C51.7918 61.2464 53.9392 58.3821 55.0611 55.0739C56.183 51.7657 56.2209 48.186 55.1693 44.8549C54.1177 41.5237 52.0314 38.6145 49.2136 36.55C46.3957 34.4856 42.993 33.3733 39.4998 33.3748ZM47.0623 59.4998H31.9373C29.9148 57.9243 28.4348 55.7566 27.7041 53.2993C26.9733 50.842 27.0282 48.2178 27.8611 45.7933C28.694 43.3687 30.2633 41.2647 32.3499 39.7753C34.4364 38.2858 36.9361 37.4851 39.4998 37.4851C42.0634 37.4851 44.5631 38.2858 46.6496 39.7753C48.7362 41.2647 50.3055 43.3687 51.1384 45.7933C51.9713 48.2178 52.0262 50.842 51.2954 53.2993C50.5647 55.7566 49.0847 57.9243 47.0623 59.4998ZM42.2346 49.9834C42.2165 50.5122 42.0462 51.0246 41.7442 51.4591C41.4421 51.8936 41.0211 52.2317 40.5317 52.4329C40.0422 52.634 39.5052 52.6897 38.9849 52.5932C38.4646 52.4968 37.9832 52.2522 37.5984 51.889C37.2136 51.5257 36.9418 51.0591 36.8156 50.5453C36.6894 50.0314 36.7141 49.492 36.8868 48.9918C37.0595 48.4916 37.3729 48.0519 37.7893 47.7253C38.2057 47.3988 38.7074 47.1993 39.2344 47.1509L44.1844 42.194L47.1008 45.1104L42.2346 49.9834ZM36.3455 54.3738L33.9736 57.7508C32.1729 56.5025 30.8531 54.6761 30.2331 52.5746C29.6131 50.473 29.7302 48.2227 30.5649 46.1969C31.3997 44.1711 32.9019 42.4915 34.8224 41.4368C36.7429 40.3821 38.9662 40.0157 41.1236 40.3983L35.3871 46.2599C34.8727 46.8361 34.4866 47.515 34.2544 48.2517C34.0222 48.9884 33.9492 49.766 34.0402 50.533C34.1312 51.3001 34.3841 52.039 34.7823 52.7009C35.1804 53.3628 35.7147 53.9325 36.3496 54.3724L36.3455 54.3738ZM49.1248 49.8748C49.1225 51.4199 48.749 52.9419 48.0357 54.3126C47.3224 55.6832 46.2901 56.8624 45.0259 57.7508L42.654 54.3738C43.0885 54.0685 48.957 48.1258 48.957 48.1258C49.0667 48.7023 49.1229 49.2878 49.1248 49.8748Z" fill="url(#paint5_linear_12_6030)"/>
<defs>
<filter id="filter0_b_12_6030" x="-5" y="3" width="90" height="89.7908" filterUnits="userSpaceOnUse" color-interpolation-filters="sRGB">
<feFlood flood-opacity="0" result="BackgroundImageFix"/>
<feGaussianBlur in="BackgroundImageFix" stdDeviation="2.5"/>
<feComposite in2="SourceAlpha" operator="in" result="effect1_backgroundBlur_12_6030"/>
<feBlend mode="normal" in="SourceGraphic" in2="effect1_backgroundBlur_12_6030" result="shape"/>
</filter>
<filter id="filter1_f_12_6030" x="1.40484" y="0.160212" width="76.6786" height="58.6437" filterUnits="userSpaceOnUse" color-interpolation-filters="sRGB">
<feFlood flood-opacity="0" result="BackgroundImageFix"/>
<feBlend mode="normal" in="SourceGraphic" in2="BackgroundImageFix" result="shape"/>
<feGaussianBlur stdDeviation="6.47727" result="effect1_foregroundBlur_12_6030"/>
</filter>
<radialGradient id="paint0_radial_12_6030" cx="0" cy="0" r="1" gradientUnits="userSpaceOnUse" gradientTransform="translate(6.69204 8) rotate(47.9449) scale(119.431 86.7751)">
<stop stop-color="white" stop-opacity="0.36"/>
<stop offset="1" stop-color="white" stop-opacity="0"/>
</radialGradient>
<radialGradient id="paint1_radial_12_6030" cx="0" cy="0" r="1" gradientUnits="userSpaceOnUse" gradientTransform="translate(-42.5965 16.1628) rotate(35.0407) scale(92.1512 54.3882)">
<stop stop-color="white"/>
<stop offset="1" stop-color="white" stop-opacity="0.06"/>
</radialGradient>
<radialGradient id="paint2_radial_12_6030" cx="0" cy="0" r="1" gradientUnits="userSpaceOnUse" gradientTransform="translate(103.421 61.4008) rotate(161.385) scale(66.8428 45.1784)">
<stop stop-color="#38B6FF"/>
<stop offset="1" stop-color="#1D294D"/>
</radialGradient>
<radialGradient id="paint3_radial_12_6030" cx="0" cy="0" r="1" gradientUnits="userSpaceOnUse" gradientTransform="translate(40.871 -10.2359) rotate(47.2149) scale(44.643 32.0879)">
<stop stop-color="white"/>
<stop offset="1" stop-color="white" stop-opacity="0"/>
</radialGradient>
<radialGradient id="paint4_radial_12_6030" cx="0" cy="0" r="1" gradientUnits="userSpaceOnUse" gradientTransform="translate(39.744 13.1147) rotate(90) scale(24.2566 37.625)">
<stop stop-color="white"/>
<stop offset="1" stop-color="white" stop-opacity="0"/>
</radialGradient>
<linearGradient id="paint5_linear_12_6030" x1="39.4998" y1="33.3748" x2="39.4998" y2="63.6248" gradientUnits="userSpaceOnUse">
<stop stop-color="#3695D9"/>
<stop offset="1" stop-color="#C4B4B8"/>
</linearGradient>
</defs>
</svg>
