<svg width="54" height="51" viewBox="0 0 54 51" fill="none" xmlns="http://www.w3.org/2000/svg">
<path d="M26.6897 12.0073C28.8137 12.0073 30.5356 10.3904 30.5356 8.39584C30.5356 6.40131 28.8137 4.78442 26.6897 4.78442C24.5656 4.78442 22.8438 6.40131 22.8438 8.39584C22.8438 10.3904 24.5656 12.0073 26.6897 12.0073Z" stroke="#061428" stroke-width="2.5" stroke-miterlimit="10"/>
<path d="M30.9032 45.8364L31.2697 31.7028C32.6817 31.2251 34.1055 30.115 33.9564 28.722L33.0662 17.9665C32.9171 16.5718 31.5728 15.4302 30.08 15.4302H23.2989C21.8061 15.4302 20.4618 16.5718 20.3127 17.9665L19.4219 28.722C19.2728 30.1168 20.696 31.2251 22.1099 31.7028L22.4745 45.8364" stroke="#061428" stroke-width="2.5" stroke-miterlimit="10" stroke-linecap="round" stroke-linejoin="round"/>
</svg>
