<svg width="80" height="88" viewBox="0 0 80 88" fill="none" xmlns="http://www.w3.org/2000/svg">
<g filter="url(#filter0_b_16_1111)">
<path d="M0 47.8954C0 25.8618 17.9664 8 40 8C62.0336 8 80 25.8618 80 47.8954C80 69.929 62.0336 87.7908 40 87.7908C17.9664 87.7908 0 69.929 0 47.8954Z" fill="url(#paint0_radial_16_1111)"/>
<path d="M0.5 47.8954C0.5 26.1396 18.2408 8.5 40 8.5C61.7592 8.5 79.5 26.1396 79.5 47.8954C79.5 69.6512 61.7592 87.2908 40 87.2908C18.2408 87.2908 0.5 69.6512 0.5 47.8954Z" stroke="url(#paint1_radial_16_1111)"/>
<path d="M0.5 47.8954C0.5 26.1396 18.2408 8.5 40 8.5C61.7592 8.5 79.5 26.1396 79.5 47.8954C79.5 69.6512 61.7592 87.2908 40 87.2908C18.2408 87.2908 0.5 69.6512 0.5 47.8954Z" stroke="url(#paint2_radial_16_1111)"/>
<path d="M0.5 47.8954C0.5 26.1396 18.2408 8.5 40 8.5C61.7592 8.5 79.5 26.1396 79.5 47.8954C79.5 69.6512 61.7592 87.2908 40 87.2908C18.2408 87.2908 0.5 69.6512 0.5 47.8954Z" stroke="url(#paint3_radial_16_1111)"/>
</g>
<g filter="url(#filter1_f_16_1111)">
<ellipse cx="39.744" cy="29.4821" rx="25.3846" ry="16.3673" fill="url(#paint4_radial_16_1111)" fill-opacity="0.2"/>
</g>
<path d="M20.356 60.0995H31.8449V62.6411C31.8449 65.7294 29.273 68.2328 26.1004 68.2328C22.9278 68.2328 20.356 65.7294 20.356 62.6411V60.0995ZM28.8337 51.9661L28.9259 51.6969C30.5283 47.4159 30.8004 46.6213 30.8004 45.8661C30.8004 44.3421 30.3773 42.5263 29.6982 41.2439C29.1928 40.2897 28.8369 40.0114 28.7115 40.0114C26.0395 40.0114 23.4893 42.7845 23.4893 45.8661C23.4893 47.8157 23.6463 49.4716 23.9629 51.4749C23.9756 51.555 24.0054 51.737 24.0431 51.9661H28.8337ZM28.7115 35.9447C32.8893 35.9447 34.9782 41.7995 34.9782 45.8661C34.9782 47.8995 33.9337 49.9328 32.8893 52.9828L31.8449 56.0328H20.356C20.356 53.9995 19.3115 50.9495 19.3115 45.8661C19.3115 40.7828 23.4848 35.9447 28.7115 35.9447ZM53.891 52.166L53.4375 54.6692C52.8867 57.7105 49.9071 59.7412 46.7827 59.2048C43.6584 58.6686 41.5722 55.7685 42.1232 52.7272L42.5765 50.2242L53.891 52.166ZM51.6987 43.5311C52.0434 42.5149 52.3272 41.713 52.3308 41.7015C52.7523 40.3633 53.0847 39.0522 53.3443 37.6194C53.8941 34.5846 51.8773 31.4225 49.2459 30.9709C49.1225 30.9497 48.7222 31.1636 48.0542 32.0179C47.1566 33.1659 46.4161 34.8828 46.1443 36.3836C46.0226 37.055 46.0418 37.2055 46.709 40.985C46.8005 41.5039 46.8786 41.9727 46.95 42.4425L46.9929 42.7233L51.6987 43.5311ZM49.9714 26.966C55.1186 27.8495 58.3654 33.3194 57.4586 38.3255C56.5518 43.3316 54.9791 46.1587 54.6165 48.1612L43.302 46.2193L42.8176 43.039C42.333 39.8588 41.6672 37.6799 42.0299 35.6774C42.7553 31.6725 45.8569 26.2598 49.9714 26.966Z" fill="#A78BFA"/>
<defs>
<filter id="filter0_b_16_1111" x="-5" y="3" width="90" height="89.791" filterUnits="userSpaceOnUse" color-interpolation-filters="sRGB">
<feFlood flood-opacity="0" result="BackgroundImageFix"/>
<feGaussianBlur in="BackgroundImageFix" stdDeviation="2.5"/>
<feComposite in2="SourceAlpha" operator="in" result="effect1_backgroundBlur_16_1111"/>
<feBlend mode="normal" in="SourceGraphic" in2="effect1_backgroundBlur_16_1111" result="shape"/>
</filter>
<filter id="filter1_f_16_1111" x="1.40484" y="0.160212" width="76.6786" height="58.6439" filterUnits="userSpaceOnUse" color-interpolation-filters="sRGB">
<feFlood flood-opacity="0" result="BackgroundImageFix"/>
<feBlend mode="normal" in="SourceGraphic" in2="BackgroundImageFix" result="shape"/>
<feGaussianBlur stdDeviation="6.47727" result="effect1_foregroundBlur_16_1111"/>
</filter>
<radialGradient id="paint0_radial_16_1111" cx="0" cy="0" r="1" gradientUnits="userSpaceOnUse" gradientTransform="translate(6.69204 8) rotate(47.9449) scale(119.431 86.7751)">
<stop stop-color="white" stop-opacity="0.36"/>
<stop offset="1" stop-color="white" stop-opacity="0"/>
</radialGradient>
<radialGradient id="paint1_radial_16_1111" cx="0" cy="0" r="1" gradientUnits="userSpaceOnUse" gradientTransform="translate(-42.5965 16.1628) rotate(35.0407) scale(92.1512 54.3882)">
<stop stop-color="white"/>
<stop offset="1" stop-color="white" stop-opacity="0.06"/>
</radialGradient>
<radialGradient id="paint2_radial_16_1111" cx="0" cy="0" r="1" gradientUnits="userSpaceOnUse" gradientTransform="translate(103.421 61.4008) rotate(161.385) scale(66.8428 45.1784)">
<stop stop-color="#38B6FF"/>
<stop offset="1" stop-color="#1D294D"/>
</radialGradient>
<radialGradient id="paint3_radial_16_1111" cx="0" cy="0" r="1" gradientUnits="userSpaceOnUse" gradientTransform="translate(40.871 -10.2359) rotate(47.2149) scale(44.643 32.0879)">
<stop stop-color="white"/>
<stop offset="1" stop-color="white" stop-opacity="0"/>
</radialGradient>
<radialGradient id="paint4_radial_16_1111" cx="0" cy="0" r="1" gradientUnits="userSpaceOnUse" gradientTransform="translate(39.744 13.1147) rotate(90) scale(24.2566 37.625)">
<stop stop-color="white"/>
<stop offset="1" stop-color="white" stop-opacity="0"/>
</radialGradient>
</defs>
</svg>
