<svg width="54" height="50" viewBox="0 0 54 50" fill="none" xmlns="http://www.w3.org/2000/svg">
<rect width="52.803" height="49.5833" transform="translate(0.288086 0.416748)" fill="#38B6FF"/>
<path d="M26.6897 11.9054C28.8137 11.9054 30.5356 10.2886 30.5356 8.29403C30.5356 6.2995 28.8137 4.68262 26.6897 4.68262C24.5656 4.68262 22.8438 6.2995 22.8438 8.29403C22.8438 10.2886 24.5656 11.9054 26.6897 11.9054Z" stroke="#061428" stroke-width="2.5" stroke-miterlimit="10"/>
<path d="M29.8507 45.7348L30.6197 33.7059H36.0808C32.5909 25.7591 31.9013 17.2034 31.9013 17.2034C31.487 15.9883 30.5713 15.3274 29.0785 15.3274H24.3002C22.8074 15.3274 21.8917 15.9883 21.4774 17.2034C21.4774 17.2034 20.7884 25.7591 17.2979 33.7059H22.7589L23.5286 45.7348" stroke="#061428" stroke-width="2.5" stroke-miterlimit="10" stroke-linecap="round" stroke-linejoin="round"/>
</svg>
